<?xml version="1.0" encoding="utf-8"?>
<!-- Generator: Adobe Illustrator 16.0.0, SVG Export Plug-In . SVG Version: 6.00 Build 0)  -->
<!DOCTYPE svg PUBLIC "-//W3C//DTD SVG 1.1//EN" "http://www.w3.org/Graphics/SVG/1.1/DTD/svg11.dtd">
<svg version="1.1" id="Layer_1" xmlns="http://www.w3.org/2000/svg" xmlns:xlink="http://www.w3.org/1999/xlink" x="0px" y="0px"
	 width="3000px" height="3000px" viewBox="0 0 3000 3000" enable-background="new 0 0 3000 3000" xml:space="preserve">
<g>
	<linearGradient id="SVGID_1_" gradientUnits="userSpaceOnUse" x1="1174.9565" y1="1292.7866" x2="1009.601" y2="576.5533">
		<stop  offset="0" style="stop-color:#4A3A98"/>
		<stop  offset="1" style="stop-color:#310F82"/>
	</linearGradient>
	<path fill="url(#SVGID_1_)" d="M1520.076,487.662c-112.525,9.529-226.573,37.221-321.249,80.691
		c0,0-304.963,173.885-196.657,572.978c-109.362,69.13-207.591,154.316-289.337,246.767c-4.219,4.726-8.359,9.49-12.461,14.255
		c-30.777-60.814-56.32-123.851-74.599-188.337C625.773,812.66,1025.761,487.817,1520.076,487.662z"/>
	<linearGradient id="SVGID_2_" gradientUnits="userSpaceOnUse" x1="590.562" y1="658.6191" x2="2298.3643" y2="658.6191">
		<stop  offset="0" style="stop-color:#8A79B8"/>
		<stop  offset="0" style="stop-color:#6D59A8"/>
		<stop  offset="1" style="stop-color:#8776B7"/>
	</linearGradient>
	<path fill="url(#SVGID_2_)" d="M2293.926,469.265c-73.859,199.505-436.584,42.338-558.99,23.824
		c-66.986-10.154-140.57-11.717-214.859-5.427c-494.315,0.156-894.303,324.999-894.303,726.354
		c-66.867-235.635-53.262-513.361,171.555-752.198C1229.565,34.787,1567.416,77.75,1937.523,148.053
		c90.223,14.375,193.299,18.358,264.656,83.427C2246.393,271.749,2316.734,407.437,2293.926,469.265z"/>
	<linearGradient id="SVGID_3_" gradientUnits="userSpaceOnUse" x1="462.2378" y1="1876.3984" x2="2014.3887" y2="1876.3984">
		<stop  offset="0" style="stop-color:#6D59A8"/>
		<stop  offset="1" style="stop-color:#8A79B8"/>
	</linearGradient>
	<path fill="url(#SVGID_3_)" d="M2014.389,1394.933c0,39.682-6.092,78.348-17.652,115.61c0,0.117-0.076,0.273-0.113,0.389
		c-28.555,91.633-90.268,174.471-175.803,241.924c-5.777,3.049-11.6,6.016-17.496,8.906
		c49.875-41.479,81.709-104.402,81.709-174.859c0-18.514-2.189-36.482-6.328-53.703c-23.865-99.093-232.9-170.88-239.934-172.99
		c-0.859-0.274-1.717-0.507-2.578-0.742c-0.391-0.118-0.777-0.234-1.168-0.312c-14.768-4.063-30.08-6.056-45.309-7.421
		c-0.039,0-0.039,0-0.039,0h-0.041c-0.039-0.04-0.039-0.04-0.115,0c-23.357-2.149-51.207-2.93-83.623-2.93
		c-94.949,0-229.815,85.186-239.422,92.919c-52.377,42.26-225.52,184.313-284.223,262.702
		c-7.931,10.625-15.623,21.246-23.005,31.986c-29.685,42.85-55.031,86.355-75.38,128.777
		c-33.943,70.73-53.979,138.418-57.182,195.09c0,0.037,0,0.037,0,0.076c-5.665,19.377-10.506,39.18-14.49,59.373
		c-0.548,2.77-1.096,5.545-1.603,8.357c-1.015,5.545-1.991,11.172-2.889,16.793c-1.251,7.773-2.345,15.547-3.32,23.396
		c-0.743,5.896-1.408,11.793-1.994,17.729c-0.624,5.9-1.132,11.877-1.562,17.852c-0.625,7.971-1.093,15.973-1.405,24.059
		c-0.157,4.025-0.313,8.049-0.391,12.107c0,0,0,0,0,0.041c-0.079,2.93-0.157,5.898-0.157,8.869
		c-0.078,2.928-0.078,5.857-0.078,8.826c0,12.967,0.351,25.814,1.055,38.545c0.194,4.258,0.469,8.518,0.782,12.732
		c0.389,5.08,0.78,10.158,1.25,15.158c0.469,5.076,1.014,10.078,1.562,15.074c0.353,3.322,0.742,6.643,1.211,9.963
		c0.391,3.318,0.821,6.637,1.328,9.916c0.431,3.322,0.938,6.604,1.485,9.887c0.468,3.281,1.015,6.561,1.601,9.803
		c0.547,3.242,1.133,6.521,1.758,9.764c0.586,3.242,1.211,6.443,1.875,9.686c0.547,2.93,1.171,5.82,1.796,8.707
		c2.617,12.229,5.546,24.297,8.788,36.209c0.782,2.971,1.641,5.938,2.5,8.906c0.858,3.123,1.756,6.209,2.733,9.295
		c0.587,2.033,1.251,4.1,1.875,6.129c1.523,4.965,3.126,9.887,4.766,14.77c0.704,2.066,1.406,4.139,2.147,6.211
		c0.235,0.74,0.509,1.479,0.782,2.223c0.783,2.186,1.563,4.412,2.382,6.641c0.431,1.25,0.898,2.502,1.367,3.748
		c0.469,1.172,0.898,2.424,1.368,3.594c8.748,23.279,18.747,45.775,29.84,67.375c0.468,0.977,0.977,1.916,1.483,2.893
		c0.508,1.051,1.055,2.107,1.641,3.123c5.507,10.508,11.289,20.818,17.303,30.855c0.898,1.484,1.757,2.93,2.655,4.414
		c0.782,1.289,1.603,2.535,2.384,3.826c5.389,8.711,10.974,17.225,16.716,25.545c0.819,1.213,1.68,2.42,2.5,3.592
		c0.663,0.938,1.364,1.914,2.03,2.854c1.133,1.639,2.304,3.242,3.476,4.844c0.353,0.508,0.665,0.977,1.054,1.445
		c0.353,0.465,0.703,0.977,1.054,1.441c0.665,0.938,1.368,1.877,2.032,2.771c2.537,3.441,5.116,6.799,7.732,10.16
		c1.954,2.576,3.984,5.113,6.016,7.617c2.187,2.771,4.452,5.502,6.719,8.238c22.614,27.145,47.376,51.908,73.934,73.857
		c1.524,1.252,3.047,2.498,4.571,3.711c9.062,7.381,18.357,14.373,27.849,21.051c2.381,1.721,4.804,3.361,7.226,5
		c3.71,2.541,7.459,5.041,11.249,7.461c-361.752-157.715-610.433-485.566-610.433-864.426c0-99.441,33.59-210.561,93.191-321.051
		c0-0.043,0-0.043,0-0.043c32.106-59.521,71.709-118.851,117.681-176.072c8.866-11.052,17.929-21.989,27.262-32.847
		c4.102-4.766,8.243-9.53,12.461-14.255c81.746-92.451,179.976-177.637,289.337-246.767c4.259-2.695,8.594-5.389,12.891-8.046
		c163.494-100.73,439.124-232.431,722.528-152.833C1887.611,1022.83,2014.389,1228.116,2014.389,1394.933z"/>
	<path fill="none" d="M1635.006,1359.159c-1.094-0.272-2.109-0.429-3.047-0.429"/>
	<linearGradient id="SVGID_4_" gradientUnits="userSpaceOnUse" x1="1034.0688" y1="1496.6055" x2="1863.0719" y2="1703.2992">
		<stop  offset="0.3005" style="stop-color:#4A3A98"/>
		<stop  offset="0.8473" style="stop-color:#310F82"/>
	</linearGradient>
	<path fill="url(#SVGID_4_)" d="M1885.033,1586.902c0,70.457-31.834,133.381-81.709,174.859
		c-36.014,17.852-73.857,33.355-113.268,46.207c-5.117,1.639-10.195,3.279-15.311,4.844
		c-84.172,25.852-174.979,39.953-269.771,39.953c-44.839,0-88.897-3.162-131.704-9.256
		c-83.702-22.695-162.44-57.063-234.268-101.162c-19.451-11.908-38.395-24.563-56.75-37.922
		c58.704-78.389,231.846-220.442,284.223-262.702c20.7,12.926,78.504,44.483,157.871,51.673c6.835,0.622,13.904,1.057,21.09,1.247
		c3.79,0.161,7.656,0.236,11.561,0.236c118.581,0,214.661-39.917,214.661-89.13c0-21.051-22.299-42.063-35.465-46.282
		c0.861,0.235,1.719,0.467,2.578,0.742c7.033,2.109,216.068,73.897,239.934,172.99
		C1882.844,1550.42,1885.033,1568.389,1885.033,1586.902z"/>
	<path fill="none" d="M799.853,2296.303c-0.704-12.73-1.055-25.578-1.055-38.545c0-2.969,0-5.898,0.078-8.826
		c0,2.928-0.038,5.896-0.038,8.863C798.838,2270.725,799.189,2283.572,799.853,2296.303z"/>
	<path fill="none" d="M800.829,2203.855c-0.585,7.971-1.054,16.016-1.405,24.059
		C799.736,2219.828,800.204,2211.826,800.829,2203.855z"/>
	<linearGradient id="SVGID_5_" gradientUnits="userSpaceOnUse" x1="798.8379" y1="2478.5664" x2="2537.7617" y2="2478.5664">
		<stop  offset="0" style="stop-color:#310F82"/>
		<stop  offset="0.9901" style="stop-color:#4A3A98"/>
	</linearGradient>
	<path fill="url(#SVGID_5_)" d="M2537.762,2414.301c0,16.639-2.186,32.848-6.285,48.234
		c-22.771,38.783-48.197,74.367-75.889,106.979c-217.006,255.201-573.953,327.264-895.559,327.264
		c-83.501,0-164.782-8.162-242.935-23.705c-85.732-16.992-167.635-42.807-244.423-76.281c-3.789-2.42-7.538-4.92-11.249-7.461
		c-2.421-1.639-4.845-3.279-7.226-5c-9.492-6.678-18.787-13.67-27.849-21.051c-1.523-1.213-3.047-2.459-4.571-3.711
		c-26.558-21.949-51.32-46.713-73.934-73.857c-2.267-2.736-4.492-5.467-6.719-8.238c-2.032-2.541-4.022-5.082-6.016-7.617
		c-2.616-3.361-5.195-6.719-7.732-10.16c-0.665-0.895-1.368-1.834-2.032-2.771c-0.351-0.465-0.702-0.977-1.054-1.441
		c-0.389-0.469-0.701-0.938-1.054-1.445c-1.171-1.602-2.343-3.205-3.476-4.844c-0.666-0.939-1.367-1.916-2.03-2.854
		c-0.821-1.172-1.681-2.379-2.5-3.592c-5.742-8.32-11.327-16.834-16.716-25.545c-1.721-2.732-3.399-5.467-5.039-8.24
		c-6.014-10.037-11.795-20.348-17.303-30.855c-0.586-1.016-1.133-2.072-1.641-3.123c-0.507-0.977-1.016-1.916-1.483-2.893
		c-11.093-21.6-21.092-44.096-29.84-67.375c-0.47-1.17-0.898-2.422-1.368-3.594c-0.469-1.246-0.937-2.498-1.367-3.748
		c-0.82-2.229-1.6-4.455-2.382-6.641c-0.273-0.744-0.547-1.482-0.782-2.223c-0.742-2.072-1.443-4.145-2.147-6.211
		c-1.64-4.883-3.242-9.805-4.766-14.77c-0.624-2.029-1.287-4.096-1.875-6.129c-0.937-3.086-1.835-6.172-2.733-9.295
		c-0.86-2.969-1.681-5.936-2.5-8.906c-3.242-11.912-6.171-23.98-8.788-36.209c-0.625-2.887-1.21-5.816-1.796-8.707
		c-0.664-3.242-1.289-6.443-1.875-9.686c-0.625-3.242-1.211-6.521-1.758-9.764c-0.546-3.279-1.093-6.521-1.601-9.803
		c-0.509-3.283-1.016-6.602-1.485-9.887c-0.467-3.279-0.898-6.598-1.328-9.916c-0.429-3.32-0.82-6.641-1.211-9.963
		c-0.547-4.996-1.092-9.998-1.562-15.074c-0.47-5-0.86-10.078-1.25-15.158c-0.313-4.215-0.588-8.475-0.782-12.732
		c-0.664-12.73-1.015-25.578-1.015-38.508c0-2.967,0.038-5.936,0.038-8.863c0-2.971,0.078-5.939,0.157-8.869
		c0-0.041,0-0.041,0-0.041c0.078-4.059,0.234-8.082,0.391-12.107c0.351-8.043,0.82-16.088,1.405-24.059
		c0.47-5.975,0.977-11.951,1.562-17.852c0.586-5.936,1.251-11.832,1.994-17.729c0.976-7.85,2.069-15.623,3.32-23.396
		c0.897-5.621,1.874-11.248,2.889-16.793c0.507-2.813,1.055-5.588,1.603-8.357c3.984-20.193,8.825-39.996,14.49-59.373
		c-0.313,5.355-0.469,10.664-0.469,15.783c0,244.424,309.924,442.561,729.756,442.561c92.33,0,180.793-9.607,262.662-27.145
		c150.525-32.262,278.674-91.436,367.219-167.559c25.35-21.795,47.457-44.994,65.891-69.328
		c28.631-17.691,62.375-27.883,98.502-27.883C2453.83,2226.785,2537.762,2310.719,2537.762,2414.301z"/>
	<path fill="none" d="M1520.449,487.665c-0.113,0-0.271,0-0.389,0"/>
</g>
</svg>
